<?xml version="1.0" encoding="UTF-8" standalone="no"?>
<!DOCTYPE svg PUBLIC "-//W3C//DTD SVG 1.1//EN"
 "http://www.w3.org/Graphics/SVG/1.1/DTD/svg11.dtd">
<!-- Generated by graphviz version 2.50.0 (20220117.2223)
 -->
<!-- Title: G Pages: 1 -->
<svg width="980pt" height="332pt"
 viewBox="0.00 0.00 979.50 332.00" xmlns="http://www.w3.org/2000/svg" xmlns:xlink="http://www.w3.org/1999/xlink">
<g id="graph0" class="graph" transform="scale(1 1) rotate(0) translate(4 328)">
<title>G</title>
<polygon fill="white" stroke="transparent" points="-4,4 -4,-328 975.5,-328 975.5,4 -4,4"/>
<!-- Layer 0 input -->
<g id="node1" class="node">
<title>Layer 0 input</title>
<polygon fill="none" stroke="black" points="250.5,-324 137.5,-324 137.5,-288 250.5,-288 250.5,-324"/>
<text text-anchor="middle" x="194" y="-302.3" font-family="Times,serif" font-size="14.00">Layer 0 input</text>
</g>
<!-- Layer 1 conv1x1&#45;bn&#45;relu -->
<g id="node2" class="node">
<title>Layer 1 conv1x1&#45;bn&#45;relu</title>
<polygon fill="none" stroke="black" points="228,-252 38,-252 38,-216 228,-216 228,-252"/>
<text text-anchor="middle" x="133" y="-230.3" font-family="Times,serif" font-size="14.00">Layer 1 conv1x1&#45;bn&#45;relu</text>
</g>
<!-- Layer 0 input&#45;&gt;Layer 1 conv1x1&#45;bn&#45;relu -->
<g id="edge1" class="edge">
<title>Layer 0 input&#45;&gt;Layer 1 conv1x1&#45;bn&#45;relu</title>
<path fill="none" stroke="black" d="M178.92,-287.7C171.61,-279.3 162.69,-269.07 154.66,-259.86"/>
<polygon fill="black" stroke="black" points="157.11,-257.34 147.91,-252.1 151.84,-261.94 157.11,-257.34"/>
</g>
<!-- Layer 3 conv1x1&#45;bn&#45;relu -->
<g id="node4" class="node">
<title>Layer 3 conv1x1&#45;bn&#45;relu</title>
<polygon fill="none" stroke="black" points="313,-108 123,-108 123,-72 313,-72 313,-108"/>
<text text-anchor="middle" x="218" y="-86.3" font-family="Times,serif" font-size="14.00">Layer 3 conv1x1&#45;bn&#45;relu</text>
</g>
<!-- Layer 0 input&#45;&gt;Layer 3 conv1x1&#45;bn&#45;relu -->
<g id="edge2" class="edge">
<title>Layer 0 input&#45;&gt;Layer 3 conv1x1&#45;bn&#45;relu</title>
<path fill="none" stroke="black" d="M213.04,-287.84C222.18,-278.3 232.17,-265.62 237,-252 253.04,-206.76 239.28,-150.34 228.3,-117.72"/>
<polygon fill="black" stroke="black" points="231.5,-116.28 224.88,-108.01 224.9,-118.6 231.5,-116.28"/>
</g>
<!-- Layer 2 conv1x1&#45;bn&#45;relu -->
<g id="node3" class="node">
<title>Layer 2 conv1x1&#45;bn&#45;relu</title>
<polygon fill="none" stroke="black" points="190,-180 0,-180 0,-144 190,-144 190,-180"/>
<text text-anchor="middle" x="95" y="-158.3" font-family="Times,serif" font-size="14.00">Layer 2 conv1x1&#45;bn&#45;relu</text>
</g>
<!-- Layer 1 conv1x1&#45;bn&#45;relu&#45;&gt;Layer 2 conv1x1&#45;bn&#45;relu -->
<g id="edge3" class="edge">
<title>Layer 1 conv1x1&#45;bn&#45;relu&#45;&gt;Layer 2 conv1x1&#45;bn&#45;relu</title>
<path fill="none" stroke="black" d="M123.61,-215.7C119.24,-207.64 113.94,-197.89 109.1,-188.98"/>
<polygon fill="black" stroke="black" points="112.13,-187.22 104.29,-180.1 105.98,-190.56 112.13,-187.22"/>
</g>
<!-- Layer 1 conv1x1&#45;bn&#45;relu&#45;&gt;Layer 3 conv1x1&#45;bn&#45;relu -->
<g id="edge4" class="edge">
<title>Layer 1 conv1x1&#45;bn&#45;relu&#45;&gt;Layer 3 conv1x1&#45;bn&#45;relu</title>
<path fill="none" stroke="black" d="M162.6,-215.81C175.67,-206.76 190.06,-194.51 199,-180 210.43,-161.45 215.06,-137.05 216.9,-118.49"/>
<polygon fill="black" stroke="black" points="220.4,-118.57 217.69,-108.33 213.42,-118.03 220.4,-118.57"/>
</g>
<!-- Layer 2 conv1x1&#45;bn&#45;relu&#45;&gt;Layer 3 conv1x1&#45;bn&#45;relu -->
<g id="edge5" class="edge">
<title>Layer 2 conv1x1&#45;bn&#45;relu&#45;&gt;Layer 3 conv1x1&#45;bn&#45;relu</title>
<path fill="none" stroke="black" d="M125.09,-143.88C141.32,-134.64 161.54,-123.13 178.97,-113.21"/>
<polygon fill="black" stroke="black" points="180.84,-116.18 187.8,-108.19 177.37,-110.09 180.84,-116.18"/>
</g>
<!-- Layer 4 output -->
<g id="node5" class="node">
<title>Layer 4 output</title>
<polygon fill="none" stroke="black" points="217,-36 95,-36 95,0 217,0 217,-36"/>
<text text-anchor="middle" x="156" y="-14.3" font-family="Times,serif" font-size="14.00">Layer 4 output</text>
</g>
<!-- Layer 2 conv1x1&#45;bn&#45;relu&#45;&gt;Layer 4 output -->
<g id="edge6" class="edge">
<title>Layer 2 conv1x1&#45;bn&#45;relu&#45;&gt;Layer 4 output</title>
<path fill="none" stroke="black" d="M96.32,-143.86C98.27,-125.37 102.96,-95.44 114,-72 118.65,-62.12 125.47,-52.43 132.26,-44.08"/>
<polygon fill="black" stroke="black" points="135.13,-46.11 138.96,-36.24 129.81,-41.57 135.13,-46.11"/>
</g>
<!-- Layer 3 conv1x1&#45;bn&#45;relu&#45;&gt;Layer 4 output -->
<g id="edge7" class="edge">
<title>Layer 3 conv1x1&#45;bn&#45;relu&#45;&gt;Layer 4 output</title>
<path fill="none" stroke="black" d="M202.67,-71.7C195.24,-63.3 186.18,-53.07 178.02,-43.86"/>
<polygon fill="black" stroke="black" points="180.4,-41.27 171.15,-36.1 175.16,-45.91 180.4,-41.27"/>
</g>
<!-- Trainable parameters 1664778 -->
<g id="node6" class="node">
<title>Trainable parameters 1664778</title>
<polygon fill="none" stroke="black" points="507.5,-324 268.5,-324 268.5,-288 507.5,-288 507.5,-324"/>
<text text-anchor="middle" x="388" y="-302.3" font-family="Times,serif" font-size="14.00">Trainable parameters 1664778</text>
</g>
<!-- Training time 800.779052734375 -->
<g id="node7" class="node">
<title>Training time 800.779052734375</title>
<polygon fill="none" stroke="black" points="782.5,-324 525.5,-324 525.5,-288 782.5,-288 782.5,-324"/>
<text text-anchor="middle" x="654" y="-302.3" font-family="Times,serif" font-size="14.00">Training time 800.779052734375</text>
</g>
<!-- Accuracy 0.80078125 -->
<g id="node8" class="node">
<title>Accuracy 0.80078125</title>
<polygon fill="none" stroke="black" points="971.5,-324 800.5,-324 800.5,-288 971.5,-288 971.5,-324"/>
<text text-anchor="middle" x="886" y="-302.3" font-family="Times,serif" font-size="14.00">Accuracy 0.80078125</text>
</g>
</g>
</svg>
