<?xml version="1.0" encoding="UTF-8" standalone="no"?>
<!DOCTYPE svg PUBLIC "-//W3C//DTD SVG 1.1//EN"
 "http://www.w3.org/Graphics/SVG/1.1/DTD/svg11.dtd">
<!-- Generated by graphviz version 2.50.0 (20220117.2223)
 -->
<!-- Title: G Pages: 1 -->
<svg width="978pt" height="332pt"
 viewBox="0.00 0.00 977.50 332.00" xmlns="http://www.w3.org/2000/svg" xmlns:xlink="http://www.w3.org/1999/xlink">
<g id="graph0" class="graph" transform="scale(1 1) rotate(0) translate(4 328)">
<title>G</title>
<polygon fill="white" stroke="transparent" points="-4,4 -4,-328 973.5,-328 973.5,4 -4,4"/>
<!-- Layer 0 input -->
<g id="node1" class="node">
<title>Layer 0 input</title>
<polygon fill="none" stroke="black" points="212.5,-324 99.5,-324 99.5,-288 212.5,-288 212.5,-324"/>
<text text-anchor="middle" x="156" y="-302.3" font-family="Times,serif" font-size="14.00">Layer 0 input</text>
</g>
<!-- Layer 1 conv1x1&#45;bn&#45;relu -->
<g id="node2" class="node">
<title>Layer 1 conv1x1&#45;bn&#45;relu</title>
<polygon fill="none" stroke="black" points="190,-252 0,-252 0,-216 190,-216 190,-252"/>
<text text-anchor="middle" x="95" y="-230.3" font-family="Times,serif" font-size="14.00">Layer 1 conv1x1&#45;bn&#45;relu</text>
</g>
<!-- Layer 0 input&#45;&gt;Layer 1 conv1x1&#45;bn&#45;relu -->
<g id="edge1" class="edge">
<title>Layer 0 input&#45;&gt;Layer 1 conv1x1&#45;bn&#45;relu</title>
<path fill="none" stroke="black" d="M140.92,-287.7C133.61,-279.3 124.69,-269.07 116.66,-259.86"/>
<polygon fill="black" stroke="black" points="119.11,-257.34 109.91,-252.1 113.84,-261.94 119.11,-257.34"/>
</g>
<!-- Layer 3 maxpool3x3 -->
<g id="node4" class="node">
<title>Layer 3 maxpool3x3</title>
<polygon fill="none" stroke="black" points="291.5,-108 130.5,-108 130.5,-72 291.5,-72 291.5,-108"/>
<text text-anchor="middle" x="211" y="-86.3" font-family="Times,serif" font-size="14.00">Layer 3 maxpool3x3</text>
</g>
<!-- Layer 0 input&#45;&gt;Layer 3 maxpool3x3 -->
<g id="edge2" class="edge">
<title>Layer 0 input&#45;&gt;Layer 3 maxpool3x3</title>
<path fill="none" stroke="black" d="M174.63,-287.68C183.65,-278.1 193.66,-265.44 199,-252 216.57,-207.77 216.11,-151.38 213.81,-118.42"/>
<polygon fill="black" stroke="black" points="217.28,-117.88 212.98,-108.19 210.3,-118.44 217.28,-117.88"/>
</g>
<!-- Layer 2 maxpool3x3 -->
<g id="node3" class="node">
<title>Layer 2 maxpool3x3</title>
<polygon fill="none" stroke="black" points="182.5,-180 21.5,-180 21.5,-144 182.5,-144 182.5,-180"/>
<text text-anchor="middle" x="102" y="-158.3" font-family="Times,serif" font-size="14.00">Layer 2 maxpool3x3</text>
</g>
<!-- Layer 1 conv1x1&#45;bn&#45;relu&#45;&gt;Layer 2 maxpool3x3 -->
<g id="edge3" class="edge">
<title>Layer 1 conv1x1&#45;bn&#45;relu&#45;&gt;Layer 2 maxpool3x3</title>
<path fill="none" stroke="black" d="M96.73,-215.7C97.5,-207.98 98.43,-198.71 99.29,-190.11"/>
<polygon fill="black" stroke="black" points="102.78,-190.4 100.29,-180.1 95.81,-189.71 102.78,-190.4"/>
</g>
<!-- Layer 2 maxpool3x3&#45;&gt;Layer 3 maxpool3x3 -->
<g id="edge4" class="edge">
<title>Layer 2 maxpool3x3&#45;&gt;Layer 3 maxpool3x3</title>
<path fill="none" stroke="black" d="M128.66,-143.88C142.78,-134.81 160.31,-123.55 175.56,-113.76"/>
<polygon fill="black" stroke="black" points="177.71,-116.54 184.23,-108.19 173.93,-110.65 177.71,-116.54"/>
</g>
<!-- Layer 4 output -->
<g id="node5" class="node">
<title>Layer 4 output</title>
<polygon fill="none" stroke="black" points="217,-36 95,-36 95,0 217,0 217,-36"/>
<text text-anchor="middle" x="156" y="-14.3" font-family="Times,serif" font-size="14.00">Layer 4 output</text>
</g>
<!-- Layer 2 maxpool3x3&#45;&gt;Layer 4 output -->
<g id="edge5" class="edge">
<title>Layer 2 maxpool3x3&#45;&gt;Layer 4 output</title>
<path fill="none" stroke="black" d="M103.76,-143.7C106.06,-125.34 111.04,-95.75 121,-72 124.99,-62.49 130.73,-52.86 136.42,-44.46"/>
<polygon fill="black" stroke="black" points="139.33,-46.4 142.25,-36.21 133.62,-42.36 139.33,-46.4"/>
</g>
<!-- Layer 3 maxpool3x3&#45;&gt;Layer 4 output -->
<g id="edge6" class="edge">
<title>Layer 3 maxpool3x3&#45;&gt;Layer 4 output</title>
<path fill="none" stroke="black" d="M197.4,-71.7C190.88,-63.39 182.93,-53.28 175.75,-44.14"/>
<polygon fill="black" stroke="black" points="178.37,-41.81 169.44,-36.1 172.87,-46.13 178.37,-41.81"/>
</g>
<!-- Trainable parameters 1143306 -->
<g id="node6" class="node">
<title>Trainable parameters 1143306</title>
<polygon fill="none" stroke="black" points="469.5,-324 230.5,-324 230.5,-288 469.5,-288 469.5,-324"/>
<text text-anchor="middle" x="350" y="-302.3" font-family="Times,serif" font-size="14.00">Trainable parameters 1143306</text>
</g>
<!-- Training time 901.79296875 -->
<g id="node7" class="node">
<title>Training time 901.79296875</title>
<polygon fill="none" stroke="black" points="708.5,-324 487.5,-324 487.5,-288 708.5,-288 708.5,-324"/>
<text text-anchor="middle" x="598" y="-302.3" font-family="Times,serif" font-size="14.00">Training time 901.79296875</text>
</g>
<!-- Accuracy 0.8748998641967773 -->
<g id="node8" class="node">
<title>Accuracy 0.8748998641967773</title>
<polygon fill="none" stroke="black" points="969.5,-324 726.5,-324 726.5,-288 969.5,-288 969.5,-324"/>
<text text-anchor="middle" x="848" y="-302.3" font-family="Times,serif" font-size="14.00">Accuracy 0.8748998641967773</text>
</g>
</g>
</svg>
